<svg width="24" height="24" viewBox="0 0 24 24" fill="none" xmlns="http://www.w3.org/2000/svg">
<path d="M17.4932 15.7506C17.9692 16.19 17.9692 16.9591 17.4932 17.3985C17.2734 17.6183 16.9805 17.7281 16.6875 17.7281C16.3579 17.7281 16.0649 17.6183 15.8452 17.3985L12 13.5533L8.11816 17.3985C7.89844 17.6183 7.60547 17.7281 7.3125 17.7281C6.98291 17.7281 6.68994 17.6183 6.47021 17.3985C5.99414 16.9591 5.99414 16.19 6.47021 15.7506L10.3154 11.8688L6.47021 8.02354C5.99414 7.58408 5.99414 6.81504 6.47021 6.37559C6.90967 5.89951 7.67871 5.89951 8.11816 6.37559L12 10.2208L15.8452 6.37559C16.2847 5.89951 17.0537 5.89951 17.4932 6.37559C17.9692 6.81504 17.9692 7.58408 17.4932 8.02354L13.6479 11.9054L17.4932 15.7506Z" fill="#222222"/>
</svg>
