<svg width="24" height="24" viewBox="0 0 24 24" fill="none" xmlns="http://www.w3.org/2000/svg">
<path d="M18.8571 2.4H5.14285C3.62785 2.4 2.39999 3.62786 2.39999 5.14286V18.8571C2.39999 20.3721 3.62785 21.6 5.14285 21.6H18.8571C20.3721 21.6 21.6 20.3721 21.6 18.8571V5.14286C21.6 3.62786 20.37 2.4 18.8571 2.4ZM10.9714 7.54286C10.9714 6.97714 11.4343 6.51429 12 6.51429C12.5657 6.51429 13.0286 6.975 13.0286 7.54286V13.0286C13.0286 13.5964 12.5679 14.0571 12 14.0571C11.4321 14.0571 10.9714 13.5986 10.9714 13.0286V7.54286ZM12 18.1714C11.256 18.1714 10.6526 17.568 10.6526 16.824C10.6526 16.08 11.2556 15.4766 12 15.4766C12.7444 15.4766 13.3474 16.08 13.3474 16.824C13.3457 17.5671 12.7457 18.1714 12 18.1714Z" fill="#222222"/>
</svg>
