<svg width="24" height="24" viewBox="0 0 24 24" fill="none" xmlns="http://www.w3.org/2000/svg">
<path d="M12 2.49375C6.7998 2.49375 2.625 6.70518 2.625 11.8688C2.625 17.0689 6.7998 21.2438 12 21.2438C17.1636 21.2438 21.375 17.0689 21.375 11.8688C21.375 6.70518 17.1636 2.49375 12 2.49375ZM12 7.18125C12.6226 7.18125 13.1719 7.73057 13.1719 8.35313C13.1719 9.01231 12.6226 9.525 12 9.525C11.3408 9.525 10.8281 9.01231 10.8281 8.35313C10.8281 7.73057 11.3408 7.18125 12 7.18125ZM13.4648 16.5563H10.5352C10.0225 16.5563 9.65625 16.19 9.65625 15.6773C9.65625 15.2013 10.0225 14.7984 10.5352 14.7984H11.1211V12.4547H10.8281C10.3154 12.4547 9.94922 12.0885 9.94922 11.5758C9.94922 11.0997 10.3154 10.6969 10.8281 10.6969H12C12.4761 10.6969 12.8789 11.0997 12.8789 11.5758V14.7984H13.4648C13.9409 14.7984 14.3438 15.2013 14.3438 15.6773C14.3438 16.19 13.9409 16.5563 13.4648 16.5563Z" fill="#222222"/>
</svg>
