<svg width="24" height="24" viewBox="0 0 24 24" fill="none" xmlns="http://www.w3.org/2000/svg">
<path d="M8.17771 0L10.3284 5.18126H7.59115L8.51987 7.42973H14.0433L8.17771 0Z" fill="#222222"/>
<path d="M15.4608 18.8187L14.5321 16.5703H13.2612L10.6705 10.167H9.49743L12.1369 16.5703H8.91087L14.8742 24L12.7235 18.8187H15.4608Z" fill="#222222"/>
<path d="M16.1939 9.72704C16.2428 9.72704 16.4383 9.62928 16.4383 8.8472C16.4383 8.06512 16.2917 7.96736 16.1939 7.96736H12.3813L13.1145 9.72704H16.1939Z" fill="#222222"/>
<path d="M13.9943 11.829H16.5361C16.585 11.829 16.7805 11.7313 16.7805 10.9492C16.7805 10.1671 16.6339 10.0693 16.5361 10.0693H13.2611L13.9943 11.829Z" fill="#222222"/>
<path d="M13.4567 16.0327L12.7235 14.273H16.1939C16.2917 14.273 16.4383 14.3708 16.4383 15.1528C16.4383 15.9344 16.2428 16.0327 16.1939 16.0327H13.4567Z" fill="#222222"/>
<path d="M11.8924 12.171L12.6256 13.9307H16.536C16.5848 13.9307 16.7804 13.8329 16.7804 13.0509C16.7804 12.2688 16.6337 12.171 16.536 12.171H11.8924Z" fill="#222222"/>
<path d="M8.95967 9.72719L9.79063 11.829L11.5014 15.9838H8.03095C7.6888 15.9838 7.54216 15.9838 7.39552 15.5439C7.2 15.0062 7.2 13.9792 7.2 11.9757C7.2 9.97159 7.24888 8.94511 7.39552 8.40743C7.54216 7.96751 7.73768 7.96751 8.03095 7.96751H11.9413L13.5544 11.829H11.7458L10.866 9.72719H8.95967Z" fill="#222222"/>
</svg>
