<svg width="25" height="25" viewBox="0 0 25 25" fill="none" xmlns="http://www.w3.org/2000/svg">
<path d="M21.3552 18.5646L13.5549 5.23447C12.9324 4.20908 11.4309 4.20908 10.845 5.23447L3.00805 18.5646C2.42211 19.5899 3.15453 20.8717 4.36303 20.8717H20.0002C21.2087 20.8717 21.9412 19.5899 21.3552 18.5646ZM11.321 9.4459C11.321 8.96983 11.6872 8.56699 12.1999 8.56699C12.676 8.56699 13.0788 8.96983 13.0788 9.4459V14.1334C13.0788 14.6461 12.676 15.0123 12.1999 15.0123C11.7605 15.0123 11.321 14.6461 11.321 14.1334V9.4459ZM12.1999 18.5279C11.5408 18.5279 11.0281 18.0152 11.0281 17.3927C11.0281 16.7701 11.5408 16.2574 12.1999 16.2574C12.8225 16.2574 13.3352 16.7701 13.3352 17.3927C13.3352 18.0152 12.8225 18.5279 12.1999 18.5279Z" fill="#222222"/>
</svg>
